<?xml version="1.0" encoding="utf-8"?>
<!-- Generator: Adobe Illustrator 18.1.1, SVG Export Plug-In . SVG Version: 6.00 Build 0)  -->
<svg version="1.1" id="Layer_1" xmlns="http://www.w3.org/2000/svg" xmlns:xlink="http://www.w3.org/1999/xlink" x="0px" y="0px"
	 viewBox="0 0 612 792" enable-background="new 0 0 612 792" xml:space="preserve">
<g>
	<path fill="#FFFFFF" d="M382.3,252c8,0,16.1,3.1,22.2,9.2l36.8,36.8c12.3,12.3,12.3,32.2,0,44.5L252.2,531.8
		c-6.1,6.1-14.2,9.2-22.2,9.2c-8,0-16.1-3.1-22.2-9.2L170.8,495c-12.3-12.3-12.3-32.2,0-44.5l189.2-189.2
		C366.2,255.1,374.3,252,382.3,252 M382.3,242c-11.1,0-21.5,4.3-29.3,12.1L163.8,443.4c-7.8,7.8-12.1,18.2-12.1,29.3
		c0,11.1,4.3,21.5,12.1,29.3l36.8,36.8c7.8,7.8,18.2,12.1,29.3,12.1c11.1,0,21.5-4.3,29.3-12.1l189.2-189.2
		c16.2-16.2,16.2-42.5,0-58.6l-36.8-36.8C403.8,246.4,393.4,242,382.3,242L382.3,242z"/>
</g>
<g>
	<g>
		<path fill="#FFFFFF" d="M303.5,344.1c-2.6,0-5.1,1-7.1,2.9c-3.9,3.9-3.9,10.2,0,14.1c1.9,1.9,4.5,2.9,7.1,2.9c2.6,0,5.1-1,7.1-2.9
			c3.9-3.9,3.9-10.2,0-14.1C308.6,345,306.1,344.1,303.5,344.1L303.5,344.1z"/>
	</g>
	<g>
		<path fill="#FFFFFF" d="M347.9,388.4c-2.6,0-5.1,1-7.1,2.9c-3.9,3.9-3.9,10.2,0,14.1c1.9,1.9,4.5,2.9,7.1,2.9c2.6,0,5.1-1,7.1-2.9
			c3.9-3.9,3.9-10.2,0-14.1C353,389.4,350.4,388.4,347.9,388.4L347.9,388.4z"/>
	</g>
	<g>
		<path fill="#FFFFFF" d="M325.7,366.2c-2.6,0-5.1,1-7.1,2.9c-3.9,3.9-3.9,10.2,0,14.1c1.9,1.9,4.5,2.9,7.1,2.9s5.1-1,7.1-2.9
			c3.9-3.9,3.9-10.2,0-14.1C330.8,367.2,328.3,366.2,325.7,366.2L325.7,366.2z"/>
	</g>
	<g>
		<path fill="#FFFFFF" d="M282.1,365.5c-2.6,0-5.1,1-7.1,2.9c-3.9,3.9-3.9,10.2,0,14.1c1.9,1.9,4.5,2.9,7.1,2.9c2.6,0,5.1-1,7.1-2.9
			c3.9-3.9,3.9-10.2,0-14.1C287.2,366.5,284.7,365.5,282.1,365.5L282.1,365.5z"/>
	</g>
	<g>
		<path fill="#FFFFFF" d="M326.4,409.9c-2.6,0-5.1,1-7.1,2.9c-3.9,3.9-3.9,10.2,0,14.1c1.9,1.9,4.5,2.9,7.1,2.9s5.1-1,7.1-2.9
			c3.9-3.9,3.9-10.2,0-14.1C331.6,410.8,329,409.9,326.4,409.9L326.4,409.9z"/>
	</g>
	<g>
		<path fill="#FFFFFF" d="M304.3,387.7c-2.6,0-5.1,1-7.1,2.9c-3.9,3.9-3.9,10.2,0,14.1c1.9,1.9,4.5,2.9,7.1,2.9c2.6,0,5.1-1,7.1-2.9
			c3.9-3.9,3.9-10.2,0-14.1C309.4,388.7,306.8,387.7,304.3,387.7L304.3,387.7z"/>
	</g>
	<g>
		<path fill="#FFFFFF" d="M260.7,386.9c-2.6,0-5.1,1-7.1,2.9c-3.9,3.9-3.9,10.2,0,14.1c1.9,1.9,4.5,2.9,7.1,2.9c2.6,0,5.1-1,7.1-2.9
			c3.9-3.9,3.9-10.2,0-14.1C265.8,387.9,263.2,386.9,260.7,386.9L260.7,386.9z"/>
	</g>
	<g>
		<path fill="#FFFFFF" d="M305,431.3c-2.6,0-5.1,1-7.1,2.9c-3.9,3.9-3.9,10.2,0,14.1c1.9,1.9,4.5,2.9,7.1,2.9c2.6,0,5.1-1,7.1-2.9
			c3.9-3.9,3.9-10.2,0-14.1C310.1,432.3,307.6,431.3,305,431.3L305,431.3z"/>
	</g>
	<g>
		<path fill="#FFFFFF" d="M282.8,409.1c-2.6,0-5.1,1-7.1,2.9c-3.9,3.9-3.9,10.2,0,14.1c1.9,1.9,4.5,2.9,7.1,2.9c2.6,0,5.1-1,7.1-2.9
			c3.9-3.9,3.9-10.2,0-14.1C287.9,410.1,285.4,409.1,282.8,409.1L282.8,409.1z"/>
	</g>
</g>
<line fill="none" stroke="#FFFFFF" stroke-width="10" stroke-linecap="round" stroke-miterlimit="10" x1="329.2" y1="323.1" x2="378.6" y2="372.5"/>
<line fill="none" stroke="#FFFFFF" stroke-width="10" stroke-linecap="round" stroke-miterlimit="10" x1="231.6" y1="420.7" x2="281" y2="470.1"/>
</svg>
