<?xml version="1.0" encoding="utf-8"?>
<!-- Generator: Adobe Illustrator 18.1.1, SVG Export Plug-In . SVG Version: 6.00 Build 0)  -->
<svg version="1.1" id="Layer_1" xmlns="http://www.w3.org/2000/svg" xmlns:xlink="http://www.w3.org/1999/xlink" x="0px" y="0px"
	 viewBox="0 0 612 792" enable-background="new 0 0 612 792" xml:space="preserve">
<path fill="none" stroke="#FFFFFF" stroke-width="10" stroke-linecap="round" stroke-miterlimit="10" d="M411.7,467.5h42.1
	c9.2,0,16.6-7.4,16.6-16.6V271.5c0-9.2-7.4-16.6-16.6-16.6H218.1c-9.2,0-16.6,7.4-16.6,16.6v143.2c0,9.2,7.4,16.6,16.6,16.6h109
	c1.9,0,3.6,0.9,4.6,2.5c6.6,10.3,32.4,49.4,45.3,68.8c2.2,3.3,7.3,1.7,7.3-2.2c-0.1-18.2-0.2-53.2-0.4-66c-0.1-3,2.4-5.5,5.4-5.5
	h19.4c9.2,0,16.6-7.4,16.6-16.6v-94.7c0-9.2-7.4-16.6-16.6-16.6H227.7"/>
<path fill="none" stroke="#FFFFFF" stroke-width="10" stroke-linecap="round" stroke-miterlimit="10" d="M178.4,300.6h-19.9
	c-9.2,0-16.6,7.4-16.6,16.6v133.3c0,9.2,7.4,16.6,16.6,16.6h8.8c9.2,0,16.6,7.4,16.6,16.6v48.5c0,5.2,6.6,7.4,9.7,3.3l50.3-65.9
	c1-1.3,2.6-2.1,4.3-2.1h76.6"/>
</svg>
