<?xml version="1.0" encoding="utf-8"?>
<!-- Generator: Adobe Illustrator 18.1.1, SVG Export Plug-In . SVG Version: 6.00 Build 0)  -->
<svg version="1.1" id="Layer_1" xmlns="http://www.w3.org/2000/svg" xmlns:xlink="http://www.w3.org/1999/xlink" x="0px" y="0px"
	 viewBox="0 0 612 792" enable-background="new 0 0 612 792" xml:space="preserve">
<g>
	<g>
		<path fill="#FFFFFF" d="M327.7,251.1c13.5,0,24.5,11,24.5,24.5v74.1h74.1c13.5,0,24.5,11,24.5,24.5v43.5c0,13.5-11,24.5-24.5,24.5
			h-74.1v74.1c0,13.5-11,24.5-24.5,24.5h-43.5c-13.5,0-24.5-11-24.5-24.5v-74.1h-74.1c-13.5,0-24.5-11-24.5-24.5v-43.5
			c0-13.5,11-24.5,24.5-24.5h74.1v-74.1c0-13.5,11-24.5,24.5-24.5H327.7 M327.7,241.1h-43.5c-19,0-34.5,15.5-34.5,34.5v64.1h-64.1
			c-19,0-34.5,15.5-34.5,34.5v43.5c0,19,15.5,34.5,34.5,34.5h64.1v64.1c0,19,15.5,34.5,34.5,34.5h43.5c19,0,34.5-15.5,34.5-34.5
			v-64.1h64.1c19,0,34.5-15.5,34.5-34.5v-43.5c0-19-15.5-34.5-34.5-34.5h-64.1v-64.1C362.2,256.6,346.7,241.1,327.7,241.1
			L327.7,241.1z"/>
	</g>
</g>
</svg>
