<?xml version="1.0" encoding="utf-8"?>
<!-- Generator: Adobe Illustrator 18.1.1, SVG Export Plug-In . SVG Version: 6.00 Build 0)  -->
<svg version="1.1" id="Layer_1" xmlns="http://www.w3.org/2000/svg" xmlns:xlink="http://www.w3.org/1999/xlink" x="0px" y="0px"
	 viewBox="0 0 612 792" enable-background="new 0 0 612 792" xml:space="preserve">
<path fill="none" stroke="#FFFFFF" stroke-width="10.3546" stroke-linecap="round" stroke-miterlimit="10" d="M450.9,586H157.7
	c-24,0-43.4-19.4-43.4-43.4V249.4c0-24,19.4-43.4,43.4-43.4h293.2c24,0,43.4,19.4,43.4,43.4v293.2C494.3,566.6,474.9,586,450.9,586z
	"/>
<g>
	<path fill="#FFFFFF" d="M210.2,418.8v-54.8c0-13,3.3-22.5,10-28.5c6.7-6.1,15.6-9.1,26.8-9.1c11.2,0,20.1,3,26.8,9.1
		c6.7,6.1,10,15.6,10,28.5v54.8c0,13.1-3.3,22.6-10,28.7c-6.7,6.1-15.6,9.1-26.8,9.1c-11.2,0-20.1-3-26.8-9.1
		C213.6,441.5,210.2,431.9,210.2,418.8z M221.9,418.8c0,18,8.4,27,25.1,27c16.7,0,25.1-9,25.1-27v-54.8c0-17.9-8.4-26.9-25.1-26.9
		c-16.7,0-25.1,9-25.1,26.9V418.8z"/>
	<path fill="#FFFFFF" d="M316.2,451V330.7c0-2.8,1.9-4.2,5.8-4.2s5.8,1.4,5.8,4.2v62.5l51.1-65c0.8-1.2,2.1-1.8,3.7-1.8
		c1.4,0,2.8,0.6,4.2,1.9c1.4,1.3,2.1,2.6,2.1,4.1c0,1.1-0.3,1.9-0.9,2.6l-38,47.2l43.5,65.4c0.5,0.9,0.7,1.7,0.7,2.3
		c0,1.5-0.7,2.9-2.1,4.2c-1.4,1.2-2.9,1.9-4.6,1.9c-1.7,0-3.1-0.9-4.4-2.7L342.4,392l-14.5,18.4V451c0,1.4-0.6,2.5-1.8,3.4
		c-1.2,0.8-2.5,1.2-4.1,1.2c-1.7,0-3-0.4-4.2-1.2C316.8,453.5,316.2,452.4,316.2,451z"/>
</g>
</svg>
