<?xml version="1.0" encoding="utf-8"?>
<!-- Generator: Adobe Illustrator 18.1.1, SVG Export Plug-In . SVG Version: 6.00 Build 0)  -->
<svg version="1.1" id="Layer_1" xmlns="http://www.w3.org/2000/svg" xmlns:xlink="http://www.w3.org/1999/xlink" x="0px" y="0px"
	 viewBox="0 0 612 792" enable-background="new 0 0 612 792" xml:space="preserve">
<path fill="none" stroke="#FFFFFF" stroke-width="10.3546" stroke-linecap="round" stroke-miterlimit="10" d="M452.5,586.1H159.3
	c-24,0-43.4-19.4-43.4-43.4V249.5c0-24,19.4-43.4,43.4-43.4h293.2c24,0,43.4,19.4,43.4,43.4v293.2
	C495.9,566.7,476.5,586.1,452.5,586.1z"/>
<g>
	<path fill="#FFFFFF" d="M203.3,352.6c0-1.4,0.5-2.7,1.5-4c1-1.3,2.1-1.9,3.3-1.9c0.8,0,1.8,0.5,3,1.6c1.2,1.1,2.4,2.3,3.7,3.6
		c1.3,1.3,3.3,2.5,6,3.6c2.7,1.1,5.8,1.6,9.2,1.6c5.6,0,9.9-1.3,13.1-4c3.2-2.7,4.7-6.6,4.7-11.9c0-4.7-1.5-8.5-4.4-11.5
		c-2.9-3-6.4-5.2-10.5-6.7c-4.1-1.5-8.2-3.2-12.4-4.9c-4.1-1.8-7.7-4.4-10.6-8.1c-2.9-3.6-4.4-8.3-4.4-14c0-4.5,0.9-8.4,2.6-11.7
		c1.7-3.3,4-5.8,6.9-7.5c2.9-1.7,5.8-2.9,8.9-3.7c3.1-0.8,6.4-1.2,9.9-1.2c5.3,0,10.4,0.8,15.2,2.3c4.8,1.5,7.2,3.7,7.2,6.4
		c0,1.2-0.4,2.5-1.3,3.9c-0.9,1.4-2,2.1-3.3,2.1c-0.3,0-2.3-0.8-5.9-2.4c-3.6-1.6-7.6-2.4-11.9-2.4c-5.2,0-9.4,1.1-12.6,3.2
		c-3.2,2.1-4.8,5.5-4.8,10.1c0,3.9,1.5,7.1,4.4,9.6c2.9,2.4,6.4,4.4,10.6,5.8c4.1,1.5,8.3,3.1,12.4,5c4.1,1.9,7.6,4.9,10.5,9
		c2.9,4.1,4.4,9.4,4.4,15.8c0,8.8-2.6,15.5-7.7,19.9s-11.9,6.7-20.4,6.7c-7.6,0-14-1.6-19.3-4.8
		C205.9,358.8,203.3,355.7,203.3,352.6z"/>
	<path fill="#FFFFFF" d="M276.8,338.6V300c0-9.7,2.5-16.7,7.5-21.2c5-4.5,11.7-6.7,20.1-6.7c8.4,0,15.1,2.2,20.1,6.7
		c5,4.5,7.6,11.6,7.6,21.2v38.6c0,9.7-2.5,16.7-7.6,21.2c-5,4.5-11.8,6.7-20.1,6.7c-8.4,0-15.1-2.2-20.1-6.7
		C279.3,355.3,276.8,348.3,276.8,338.6z M287.5,338.6c0,12.1,5.6,18.2,16.8,18.2c5.4,0,9.6-1.5,12.5-4.6c3-3,4.4-7.6,4.4-13.7V300
		c0-6.1-1.5-10.6-4.4-13.7c-3-3-7.1-4.6-12.5-4.6c-11.2,0-16.8,6.1-16.8,18.2V338.6z"/>
	<path fill="#FFFFFF" d="M349.6,352.6c0-1.4,0.5-2.7,1.5-4c1-1.3,2.1-1.9,3.3-1.9c0.8,0,1.8,0.5,3,1.6c1.2,1.1,2.4,2.3,3.7,3.6
		c1.3,1.3,3.3,2.5,6,3.6c2.7,1.1,5.8,1.6,9.2,1.6c5.6,0,9.9-1.3,13.1-4c3.2-2.7,4.7-6.6,4.7-11.9c0-4.7-1.5-8.5-4.4-11.5
		c-2.9-3-6.4-5.2-10.5-6.7c-4.1-1.5-8.2-3.2-12.4-4.9c-4.1-1.8-7.7-4.4-10.6-8.1c-2.9-3.6-4.4-8.3-4.4-14c0-4.5,0.9-8.4,2.6-11.7
		c1.7-3.3,4-5.8,6.9-7.5c2.9-1.7,5.8-2.9,8.9-3.7c3.1-0.8,6.4-1.2,9.9-1.2c5.3,0,10.4,0.8,15.2,2.3c4.8,1.5,7.2,3.7,7.2,6.4
		c0,1.2-0.4,2.5-1.3,3.9c-0.9,1.4-2,2.1-3.3,2.1c-0.3,0-2.3-0.8-5.9-2.4c-3.6-1.6-7.6-2.4-11.9-2.4c-5.2,0-9.4,1.1-12.6,3.2
		c-3.2,2.1-4.8,5.5-4.8,10.1c0,3.9,1.5,7.1,4.4,9.6c2.9,2.4,6.4,4.4,10.6,5.8c4.1,1.5,8.3,3.1,12.4,5c4.1,1.9,7.6,4.9,10.5,9
		c2.9,4.1,4.4,9.4,4.4,15.8c0,8.8-2.6,15.5-7.7,19.9s-11.9,6.7-20.4,6.7c-7.6,0-14-1.6-19.3-4.8
		C352.3,358.8,349.6,355.7,349.6,352.6z"/>
</g>
<g>
	<path fill="#FFFFFF" d="M226.7,515.5c0-3.2,1.7-4.7,5.1-4.7c3.8,0,5.6,1.4,5.6,4.2c0,3.9,1.6,7.1,4.8,9.5c3.2,2.4,7.2,3.6,11.9,3.6
		c11.4,0,17.1-6.1,17.1-18.2v-18c-4,5.3-10.3,8-18.7,8c-17.2,0-25.8-8.6-25.8-25.9v-2.7c0-9.7,2.5-16.7,7.5-21.2
		c5-4.5,11.7-6.7,20.1-6.7c8.4,0,15.1,2.2,20.1,6.7c5,4.5,7.6,11.6,7.6,21.2v38.6c0,9.7-2.5,16.7-7.6,21.2
		c-5.1,4.5-11.9,6.7-20.5,6.7c-8.6,0-15.2-2.2-20-6.7C229.1,526.7,226.7,521.5,226.7,515.5z M237.5,473.3c0,11.7,5.6,17.6,16.9,17.6
		c11.2,0,16.8-5.5,16.8-16.4v-3.9c0-12.2-5.6-18.3-16.9-18.3c-11.2,0-16.8,6.1-16.8,18.3V473.3z"/>
	<path fill="#FFFFFF" d="M301.7,463.3c0-1.8,0.8-3.3,2.3-4.5l11.8-14c1.1-1.1,2.2-1.7,3.3-1.7c1.2,0,2.3,0.3,3.3,1
		c1,0.7,1.5,1.6,1.5,2.8v86.2c0,1.2-0.5,2.1-1.6,2.8c-1.1,0.7-2.3,1-3.8,1c-1.5,0-2.7-0.3-3.8-1c-1.1-0.7-1.6-1.6-1.6-2.8v-73.9
		l-4.7,7.1c-0.9,0.9-1.8,1.4-2.7,1.4c-1.1,0-2.1-0.4-2.8-1.3C302.1,465.5,301.7,464.5,301.7,463.3z"/>
	<path fill="#FFFFFF" d="M345.1,463.3c0-1.8,0.8-3.3,2.3-4.5l11.8-14c1.1-1.1,2.2-1.7,3.3-1.7c1.2,0,2.3,0.3,3.3,1
		c1,0.7,1.5,1.6,1.5,2.8v86.2c0,1.2-0.5,2.1-1.6,2.8c-1.1,0.7-2.3,1-3.8,1c-1.5,0-2.7-0.3-3.8-1c-1.1-0.7-1.6-1.6-1.6-2.8v-73.9
		l-4.7,7.1c-0.9,0.9-1.8,1.4-2.7,1.4c-1.1,0-2.1-0.4-2.8-1.3C345.5,465.5,345.1,464.5,345.1,463.3z"/>
</g>
<line fill="none" stroke="#FFFFFF" stroke-width="10" stroke-linecap="round" x1="166.7" y1="401.3" x2="451.8" y2="401.3"/>
</svg>
