<?xml version="1.0" encoding="utf-8"?>
<!-- Generator: Adobe Illustrator 18.1.1, SVG Export Plug-In . SVG Version: 6.00 Build 0)  -->
<svg version="1.1" id="Layer_1" xmlns="http://www.w3.org/2000/svg" xmlns:xlink="http://www.w3.org/1999/xlink" x="0px" y="0px"
	 viewBox="0 0 612 792" enable-background="new 0 0 612 792" xml:space="preserve">
<path fill="none" stroke="#FFFFFF" stroke-width="10.1101" stroke-miterlimit="10" d="M260.5,432.5c0-24.6,20.6-44.4,45.8-44
	c24.7,0.4,44.2,20.6,44.2,44.7v29.9c0,13.3-11,20-24.6,20h-40.3c-13.4,0-24.3-6.4-24.6-19.5L260.5,432.5z"/>
<ellipse fill="none" stroke="#FFFFFF" stroke-width="10.1101" stroke-miterlimit="10" cx="305.5" cy="372.8" rx="20" ry="14.2"/>
<g>
	<path fill="none" stroke="#FFFFFF" stroke-width="10.1101" stroke-linecap="round" stroke-miterlimit="10" d="M287.4,389.7
		l-52.1-60c-5.6-6.4-7-15.4-3.5-23.1l39.4-59.6"/>
	<path fill="none" stroke="#FFFFFF" stroke-width="10.1101" stroke-linecap="round" stroke-miterlimit="10" d="M279.9,388.9
		l-55.1-27.5c-4-2-7.3-5.2-9.5-9L196,318.3c-2.4-4.2-1.1-24.3-1.1-24.3"/>
	<path fill="none" stroke="#FFFFFF" stroke-width="10.1101" stroke-linecap="round" stroke-miterlimit="10" d="M262.7,414.2h-55.6
		c-4.4,0-8.7,1.4-12.3,3.9l-27,19.2"/>
	<path fill="none" stroke="#FFFFFF" stroke-width="10.1101" stroke-linecap="round" stroke-miterlimit="10" d="M259,425.2
		l-27.4,35.5c-4.7,6-5.5,14.1-2.3,20.9l50.1,64.3"/>
</g>
<g>
	<path fill="none" stroke="#FFFFFF" stroke-width="10.1101" stroke-linecap="round" stroke-miterlimit="10" d="M325.4,389.7l52.1-60
		c5.6-6.4,7-15.4,3.5-23.1L341.7,247"/>
	<path fill="none" stroke="#FFFFFF" stroke-width="10.1101" stroke-linecap="round" stroke-miterlimit="10" d="M332.9,388.9
		l55.1-27.5c4-2,7.3-5.2,9.5-9l19.2-34.1c2.4-4.2,1.1-24.3,1.1-24.3"/>
	<path fill="none" stroke="#FFFFFF" stroke-width="10.1101" stroke-linecap="round" stroke-miterlimit="10" d="M350.1,414.2h55.6
		c4.4,0,8.7,1.4,12.3,3.9l27,19.2"/>
	<path fill="none" stroke="#FFFFFF" stroke-width="10.1101" stroke-linecap="round" stroke-miterlimit="10" d="M353.8,425.2
		l27.4,35.5c4.7,6,5.5,14.1,2.3,20.9l-50.1,64.3"/>
</g>
</svg>
